<?xml version="1.0" standalone="no"?><!-- Generator: Gravit.io --><svg xmlns="http://www.w3.org/2000/svg" xmlns:xlink="http://www.w3.org/1999/xlink" style="isolation:isolate" viewBox="-26.917 -24.5 362.835 362.835" width="362.835" height="362.835"><clipPath id="_clipPath_ltNTM2iZCpgGk6RgYGkryhjBNkUPFT4b"><rect x="-26.917" y="-24.5" width="362.835" height="362.835" transform="matrix(1,0,0,1,0,0)" fill="rgb(255,255,255)"/></clipPath><g clip-path="url(#_clipPath_ltNTM2iZCpgGk6RgYGkryhjBNkUPFT4b)"><g id="null" filter="url(#vUqWaFGBu9FLhdbiltuhPIS5U3JgSbA4)"><path d=" M -17.917323 217.879154 C -17.917323 163.17287 58.936605 118.758308 153.599088 118.758308 C 248.261572 118.758308 325.1155 163.17287 325.1155 217.879154 C 325.1155 272.585438 248.261572 317 153.599088 317 C 58.936605 317 -17.917323 272.585438 -17.917323 217.879154 Z " fill="rgb(94,215,94)" vector-effect="non-scaling-stroke" stroke-width="1" stroke="rgb(64,151,64)" stroke-linejoin="miter" stroke-linecap="square" stroke-miterlimit="3"/><g id="null"><path d="M 308.024896 201.510574 C 308.024896 251.197933 238.829011 291.537764 153.599088 291.537764 C 68.369166 291.537764 -0.82672 251.197933 -0.82672 201.510574 L -0.82672 106.02719 L 308.024896 106.02719 L 308.024896 201.510574 L 308.024896 201.510574 Z" style="stroke:none;fill:#DBDBDB;stroke-miterlimit:10;"/><path d="M 308.024896 201.510574 C 308.024896 251.197933 238.829011 291.537764 153.599088 291.537764 C 68.369166 291.537764 -0.82672 251.197933 -0.82672 201.510574 L -0.82672 106.02719 L 308.024896 106.02719 L 308.024896 201.510574 L 308.024896 201.510574 Z" style="fill:none;stroke:#AEAEAE;stroke-width:1;stroke-linecap:square;stroke-miterlimit:3;"/><path d=" M -0.82672 106.02719 C -0.82672 56.339832 68.369166 16 153.599088 16 C 238.829011 16 308.024896 56.339832 308.024896 106.02719 C 308.024896 155.714549 238.829011 196.054381 153.599088 196.054381 C 68.369166 196.054381 -0.82672 155.714549 -0.82672 106.02719 Z " fill="rgb(247,247,247)" vector-effect="non-scaling-stroke" stroke-width="1" stroke="rgb(189,189,189)" stroke-linejoin="miter" stroke-linecap="square" stroke-miterlimit="3"/></g><g id="null"><defs><filter id="wNs4I2tC4uLRGmaW06YQxk4UXkOGkIgk" x="-200%" y="-200%" width="400%" height="400%"><feOffset xmlns="http://www.w3.org/2000/svg" in="SourceAlpha" result="offOut" dx="0" dy="4"/><feGaussianBlur xmlns="http://www.w3.org/2000/svg" in="offOut" result="blurOut" stdDeviation="2"/><feComponentTransfer xmlns="http://www.w3.org/2000/svg" in="blurOut" result="opacOut"><feFuncA xmlns="http://www.w3.org/2000/svg" type="table" tableValues="0 0.5"/></feComponentTransfer><feBlend xmlns="http://www.w3.org/2000/svg" in="SourceGraphic" in2="opacOut" mode="normal"/></filter></defs><g filter="url(#wNs4I2tC4uLRGmaW06YQxk4UXkOGkIgk)"><path d=" M 60.211149 105.450281 C 60.211149 82.379416 102.148049 63.6488 153.802548 63.6488 C 205.457047 63.6488 247.393947 82.379416 247.393947 105.450281 C 247.393947 128.521146 205.457047 147.251762 153.802548 147.251762 C 102.148049 147.251762 60.211149 128.521146 60.211149 105.450281 Z " fill="rgb(75,172,75)" vector-effect="non-scaling-stroke" stroke-width="1" stroke="rgb(60,142,60)" stroke-linejoin="miter" stroke-linecap="square" stroke-miterlimit="3"/></g><rect x="60.211" y="69.653" width="187.183" height="35.798" transform="matrix(1,0,0,1,0,0)" fill="rgb(75,172,75)"/><path d=" M 60.211149 69.652568 C 60.211149 47.836434 102.148049 30.124501 153.802548 30.124501 C 205.457047 30.124501 247.393947 47.836434 247.393947 69.652568 C 247.393947 91.468702 205.457047 109.180635 153.802548 109.180635 C 102.148049 109.180635 60.211149 91.468702 60.211149 69.652568 Z " fill="rgb(94,215,94)" vector-effect="non-scaling-stroke" stroke-width="1" stroke="rgb(60,142,60)" stroke-linejoin="miter" stroke-linecap="square" stroke-miterlimit="3"/><path d=" M 61.765309 73.563193 C 61.507012 72.382042 61.375 71.18564 61.375 69.976393 C 61.375 48.563815 102.780853 31.173242 153.78125 31.173242 C 204.781647 31.173242 246.1875 48.5646 246.1875 69.976393 C 246.1875 72.709306 245.513228 75.376611 244.230791 77.950547" fill="none" vector-effect="non-scaling-stroke" stroke-width="1" stroke="rgb(189,255,189)" stroke-linejoin="miter" stroke-linecap="square" stroke-miterlimit="3"/></g></g><defs><filter id="vUqWaFGBu9FLhdbiltuhPIS5U3JgSbA4" x="-200%" y="-200%" width="400%" height="400%"><feOffset xmlns="http://www.w3.org/2000/svg" in="SourceAlpha" result="offOut" dx="0" dy="3"/><feGaussianBlur xmlns="http://www.w3.org/2000/svg" in="offOut" result="blurOut" stdDeviation="2.5"/><feComponentTransfer xmlns="http://www.w3.org/2000/svg" in="blurOut" result="opacOut"><feFuncA xmlns="http://www.w3.org/2000/svg" type="table" tableValues="0 0.5"/></feComponentTransfer><feBlend xmlns="http://www.w3.org/2000/svg" in="SourceGraphic" in2="opacOut" mode="normal"/></filter></defs></g></svg>